<?xml version="1.0" encoding="UTF-8"?> <svg xmlns="http://www.w3.org/2000/svg" width="316" height="316" viewBox="0 0 316 316" fill="none"> <path d="M239.163 127.977L231.186 120.002L239.163 112.023V91.7161L315.995 6.9742L309.023 0L224.279 76.8347H167.714L82.9742 0L0 82.9742L76.8325 167.716L81.5692 185.164H91.432L95.432 181.164L99.432 177.164L103.432 173.164L103.833 172.171H117.207L113.569 174.836L109.569 178.836L105.569 182.836L101.569 186.836L97.5692 190.836L93.5692 194.836L89.5692 198.836L85.5692 202.836L81.5692 206.836L76.8325 224.279L0 309.024L6.9742 316L91.7139 239.165H148.279L233.019 316L315.995 233.024L239.163 148.284V127.977Z" fill="url(#paint0_linear)"></path> <path d="M239.163 127.977L231.186 120.002L239.163 112.023V91.7161L315.996 6.97419L309.024 0L224.279 76.8347H167.714L82.9742 0L76 6.97419L152.832 91.7161L157.569 109.164H167.432L172.166 97.4396L173.435 96.1709H218.558L219.827 97.4396V108.513L218.558 110.332L190.015 115.071V124.931L218.558 129.668L219.827 131.487V142.565L218.558 143.827H173.435L172.166 142.56L167.432 130.836H157.569L152.832 148.279L76 233.024L82.9742 240L167.714 163.165H224.279L309.019 240L315.996 233.024L239.163 148.284V127.977Z" fill="white"></path> <defs> <linearGradient id="paint0_linear" x1="316" y1="1.88029e-05" x2="-4.55708e-05" y2="316" gradientUnits="userSpaceOnUse"> <stop stop-color="#4D008C"></stop> <stop offset="1" stop-color="#FF027B"></stop> </linearGradient> </defs> </svg> 